<?xml version="1.0" encoding="UTF-8" standalone="no"?>
<!DOCTYPE svg PUBLIC "-//W3C//DTD SVG 1.1//EN" "http://www.w3.org/Graphics/SVG/1.1/DTD/svg11.dtd">
<svg width="100%" height="100%" viewBox="-50 -50 900 848" version="1.1" xmlns="http://www.w3.org/2000/svg" xmlns:xlink="http://www.w3.org/1999/xlink" xml:space="preserve" xmlns:serif="http://www.serif.com/" style="fill-rule:evenodd;clip-rule:evenodd;stroke-linecap:round;stroke-linejoin:round;stroke-miterlimit:1.5;">
<style>
    path {
        transition: transform 0.2s ease-in;
        transform-box: fill-box; /* 各パスの塗り領域を基準にする */
        transform-origin: center;
    }
    path:hover {
        transform: scale(1.2);
    }
</style>
    <g transform="matrix(1,0,0,1,-0.0717805,-0.00318413)">
        <g id="レイヤー3">
            <path d="M464.963,17.042C464.476,18.091 465.011,19.643 466.219,21.335C466.951,22.361 468.184,23.389 468.858,24.53C469.784,26.1 469.896,28.496 469.7,30.254C469.506,31.988 468.962,33.157 468.28,34.479C467.061,36.839 463.673,41.653 460.313,47.074C458.058,50.713 456.343,54.488 454.426,57.974C453.571,59.529 452.173,58.219 451.392,59.526C450.17,61.574 451.062,67.157 449.542,67.51C448.576,67.735 446.849,66.455 445.97,67.51C444.378,69.423 443.263,72.716 441.492,75.356C440.943,76.175 438.556,74.467 438.417,75.356C438.154,77.039 439.063,79.768 437.983,80.792C436.91,81.81 436.421,82.933 436.16,83.344C435.724,84.03 435.504,84.954 435.106,86.1C434.788,87.016 432.789,86.771 432.489,87.912C430.967,93.683 433.25,102.515 432.489,109.619C432.397,110.477 430.845,110.639 430.626,111.437C430.137,113.215 431.114,115.239 430.626,116.747C429.935,118.883 427.521,120.369 426.86,121.097C425.246,122.876 422.506,124.485 421.904,126.811C421.669,127.717 421.765,128.743 422.364,129.976C422.61,130.483 423.275,131.006 423.186,131.632C422.755,134.653 421.4,138.431 420.839,142.68C420.487,145.347 421.199,148.091 420.839,151.021C420.711,152.057 419.416,152.798 419.28,153.853C419.063,155.523 417.601,157.273 417.388,158.972C417.248,160.086 417.513,161.898 417.388,163.012C417.228,164.439 415.009,165.42 414.858,166.817C414.61,169.126 414.301,171.301 414.858,173.429C415.161,174.586 416.27,174.584 416.219,175.78C416.165,177.045 414.673,178.912 414.542,180.166C414.267,182.798 415.461,187.09 414.858,189.195C414.049,192.021 411.857,193.226 410.784,194.501C410.377,194.985 408.572,195.977 408.538,197.9C408.443,203.417 407.938,214.136 408.24,223.824C408.266,224.669 408.325,225.742 408.538,226.55C409.424,229.908 412.206,231.69 414.858,233.237C415.656,233.702 417.193,232.92 418.069,233.237C422.509,234.842 425.423,236.207 426.22,236.285C428.642,233.322 431.108,228.74 433.432,226.55C434.72,225.335 436.724,224.818 437.983,223.824C440.721,221.664 443.378,218.007 445.97,216.683C447.633,215.834 449.78,216.394 451.392,215.846C452.161,215.584 452.104,213.613 452.886,213.543C457.207,213.151 461.016,213.719 464.963,213.543C465.946,213.499 466.333,211.63 467.308,211.551C472.463,211.135 478.239,212.177 483.46,210.464C485.448,209.811 487.789,208.336 489.146,206.714C497.212,197.073 501.373,197.132 509.985,199.795C512.52,200.579 515.962,203.546 518.82,205.118C520.919,206.271 524.823,206.781 528.528,205.973C530.095,205.632 531.758,205.516 533.019,204.366C534.298,203.2 533.234,201.052 534.543,199.795C538.299,196.185 543.008,192.245 543.749,191.753C545.358,190.687 547.044,189.343 548.931,188.911C550.335,188.589 552.884,189.44 554.214,188.6C558.804,185.702 562.044,179.485 566.421,176.313C567.469,175.554 568.781,176.025 569.503,175.389C570.586,174.435 568.72,172.83 569.503,172.232C573.212,169.403 573.816,166.382 573.127,163.871C572.307,164.482 570.762,166.178 565.708,173.128C565.04,174.047 562.076,174.055 561.763,172.833C563.449,169.965 564.848,167.338 566.421,165.421C569.17,162.07 570.104,160.45 571.491,158.101C572.186,156.922 571.167,154.847 572.55,154.652C575.066,154.297 581.557,152.321 586.007,154.652C589.097,156.27 591.587,160.429 593.876,163.012C598.035,167.705 603.105,172.77 606.539,178.658C612.582,189.015 616.067,200.609 619.213,208.79C619.435,209.366 619.973,209.469 620.195,210.009C620.774,211.419 619.672,213.692 620.195,214.87C620.497,215.55 621.675,215.199 621.711,215.846C621.959,220.36 621.662,221.154 622.163,221.309C622.802,221.507 623.705,221.051 624.88,220.732C625.146,220.66 624.287,219.981 624.573,219.897C625.999,219.48 627.535,219.486 629.33,219.897C630.199,220.096 630.771,221.254 631.746,221.309C634.096,221.443 638.936,220.565 640.591,222.124C641.744,223.209 640.436,225.082 640.948,227.503C641.321,229.265 642.371,230.356 642.834,231.67C643.612,233.877 643.915,235.944 643.802,237.481C643.644,239.627 641.796,241.927 642.319,243.223C642.606,243.934 643.426,245.61 644.44,246.092C645.502,246.596 647.335,246.392 648.396,246.972C652.786,249.366 653.53,250.642 652.844,246.972C652.793,246.703 652.61,245.553 653.59,245.551C655.315,245.546 657.149,246.567 658.475,246.092C660.693,245.297 661.521,241.808 663.39,239.13C664.481,237.565 667.558,235.653 669.335,235.254C670.317,235.033 669.892,234.235 669.867,233.237C669.829,231.707 669.793,229.706 669.867,228.589C670.551,218.27 668.655,211.399 670.218,204.366C671.978,196.444 673.801,187.625 677.051,172.232C678.999,163.007 681.824,151.779 685.028,136.394C688.791,118.326 689.439,118.32 690.78,111.437C690.81,111.284 691.424,107.495 693.268,103.344C694.433,100.723 697.751,98.382 698.749,95.183C699.499,92.779 697.133,90.467 696.024,88.374C694.307,85.134 698.916,86.096 699.149,84.073C699.499,81.045 700.432,74.506 700.362,72.05C700.338,71.208 699.935,69.775 699.727,69.487C699.461,69.119 698.318,68.606 697.918,69.487C697.784,69.782 697.444,70.043 697.309,70.3C697.065,70.768 694.005,73.517 690.182,78.507C683.793,86.846 671.975,100.675 656.843,105.425C648.922,107.912 640.647,114.445 631.746,114.819C616.121,115.476 598.569,105.915 577.628,84.881C576.919,84.169 566.575,67.315 554.214,54.68C551.404,51.808 544.893,48.429 542.973,45.772C540.46,42.295 538.28,39.357 536.423,39.049C532.975,38.479 529.296,38.754 525.11,39.049C521.102,39.333 516.687,39.998 513.35,39.751C508.528,39.393 500.987,33.518 493.766,26.449C492.77,25.474 493.062,22.936 492.048,21.971C490.043,20.066 486.995,18.814 485.11,17.042C483.312,15.352 480.001,15.284 478.545,13.772C476.791,11.952 475.663,10.012 474.596,8.698L472.958,6.311C472.051,5.618 472.011,4.766 470.042,6.697C469.479,7.249 469.326,8.635 469.33,9.209C469.334,9.952 467.801,10.777 467.899,11.8C468.155,14.458 468.34,15.614 467.308,15.654C466.342,15.692 465.53,15.821 464.963,17.042Z" style="fill:rgb(163,199,247);"/>
        </g>
    </g>
    <g id="レイヤー4">
        <path d="M621.899,225.164C621.324,228.839 619.357,233.116 615.334,236.657C610.266,241.119 608.698,242.83 609.234,250.864C609.652,257.142 608.218,265.073 607.632,270.583C605.927,286.594 603.184,299.868 600.984,312.979C596.918,337.208 585.609,355.063 575.255,366.57C566.403,376.407 556.556,379.868 552.201,379.895C550.205,379.907 543.869,375.96 542.107,372.897C541.658,372.119 541.7,371.066 540.8,371.344C536.806,372.582 530.889,372.934 526.586,375.624C526.032,375.97 522.867,378.592 522.77,380.719C522.69,382.47 522.983,385.034 523.526,386.915C523.775,387.78 525.116,388.402 524.645,388.91C522.531,391.192 522.528,397.877 520.346,396.976C517.162,395.661 513.368,397.347 512.439,398.296C511.637,399.116 512.776,403.678 512.665,406.271C512.55,408.949 507.992,409.525 507.923,409.878C502.782,411.309 500.876,411.387 498.325,414.928C496.838,416.992 497.111,420.781 495.802,422.399C492.545,426.425 488.636,427.278 489.038,428.659C489.816,431.332 488.511,435.61 488.511,435.61C486.856,438.442 484.19,438.83 480.873,439.207C478.407,439.487 474.688,438.542 472.464,439.263C469.849,440.112 468.436,442.808 468.052,443.406C466.275,446.166 464.366,455.233 467.55,455.899C471.627,456.752 473.418,460.269 477.023,460.434C480.533,460.594 484.334,461.118 486.13,463.025C490.019,467.151 495.778,471.053 496.689,474.199C496.967,475.159 494.095,477.529 493.757,479.005C493.447,480.36 494.378,481.654 493.919,482.839C493.554,483.782 492.415,484.654 492.141,485.708C491.999,486.251 492.45,487.395 492.291,487.935C492.122,488.505 491.679,489.251 491.51,489.802C491.208,490.784 490.012,491.406 489.935,492.389C489.537,497.526 487.522,504.436 485.953,504.743C479.308,506.042 476.331,506.218 472.758,504.11C469.953,502.455 468.173,499.597 466.925,499.397C459.425,498.197 454.685,497.971 454.408,498.98C454.091,500.134 453.995,505.745 455.756,507.408C457.607,509.157 457.203,512.624 456.852,514.014C456.061,517.148 454.458,521.272 453.197,522.094C450.848,523.626 446.628,524.558 446.704,526.348C446.826,529.225 446.259,531.791 446.851,535.682C447.07,537.117 450.885,538.725 451.189,540.402C451.689,543.164 450.437,546.968 451.343,550.398C449.661,553.456 444.095,553.722 443.982,557.816C443.908,560.52 446.593,563.443 450.947,568.419C457.018,575.358 453.601,582.258 456.417,585.926C456.836,586.472 460.789,583.111 461.475,583.15C463.01,583.237 464.441,584.144 465.032,583.231C466.157,581.493 469.165,581.365 470.794,582.421C471.739,583.033 471.122,585.934 472.577,587.175C480.691,594.096 485.313,604.683 482.816,607.871C481.097,610.065 479.2,612.438 477.681,613.378C474.829,615.142 471.673,611.098 471.013,610.768C470.024,610.274 471.927,606.835 472.847,605.226C474.724,601.945 470.547,600.449 467.863,603.44C467.319,604.047 465.81,606.112 466.662,608.929C467.166,610.593 469.224,611.003 469.362,612.809C469.633,616.354 469.311,620.807 467.425,621.939C466.314,622.606 464.007,622.238 462.776,621.403C462.462,621.191 460.323,619.894 459.199,618.96C456.926,617.071 456.201,612.562 455.056,612.19C454.399,613.656 453.905,620.234 454.945,621.033C455.711,621.622 457.886,620.941 459.26,621.354C461.111,621.909 459.825,627.62 461.741,626.992C463.598,626.384 470.233,624.514 471.934,625.629C472.869,626.243 475.172,627.067 476.356,626.506C476.879,626.258 478.219,624.525 478.778,624.234C480.269,623.458 483.065,622.633 484.737,623.821C485.294,624.216 485.376,624.852 485.768,625.44C486.49,626.521 489.265,625.86 490.167,625.637C490.927,625.45 490.175,622.803 490.752,623.576C491.348,624.373 497.475,623.674 498.957,623.64C501.503,623.58 505.608,620.02 504.974,615.575C504.08,609.305 507.571,606.151 510.377,604.151C514.059,601.528 515.873,597.879 520.397,597.515C523.829,597.239 528.618,597.396 533.379,594.859C535.866,593.533 538.147,591.122 540.853,588.609C542.181,587.376 544.239,588.649 546.277,588.217C548.735,587.697 551.295,585.616 554.24,585.739C559.991,585.979 567.05,585.359 575.151,587.384C575.638,587.506 577.471,587.428 579.142,588.13C580.669,588.771 582.05,590.212 582.394,590.02C583.044,589.656 582.031,586.87 583.287,586.212C585.798,584.895 587.617,582.511 587.672,581.725C587.794,580.006 588.554,578.694 589.79,578.793C593.346,579.078 595.722,575.981 597.231,574.119C598.046,573.113 596.826,569.949 597.301,568.531C597.486,567.979 599.132,567 599.875,566.908C600.843,566.788 601.858,567.606 602.748,566.98C603.581,566.394 604.188,565.597 605.185,565.023C606.663,564.172 609.697,563.428 611.396,563.816C612.754,564.127 614.78,563.089 616.288,562.144C616.825,561.807 619.683,562.711 620.142,562.198C622.476,559.59 624.558,553.834 625.812,552.644C627.02,551.497 628.1,553.306 629.842,552.569C631.106,552.035 629.422,549.37 630.463,547.881C632.977,545.449 638.395,549.326 639.592,549.305C642.245,549.258 644.303,548.154 644.827,546.656C645.369,545.108 643.345,541.894 644.999,539.463C645.419,538.847 647.956,538.293 648.806,538.483C650.314,538.821 651.399,536.696 652.068,536.952C653.626,537.547 655.556,541.963 656.661,545.382C656.86,546 657.228,547.527 657.715,547.754C658.749,548.235 661.584,546.87 662.298,546.2C663.427,545.141 664.583,540.779 666.658,537.339C667.575,535.818 677.884,538.744 681.986,536.805C684.162,535.777 683.357,533.864 685.158,533.239C686.102,532.912 687.947,533.862 689.481,533.072C693.482,531.014 699.512,527.849 700.227,526.752C701.199,525.257 698.357,521.91 697.411,519.847C691.647,507.27 690.08,492.874 687.489,481.06C686.953,478.618 683.833,477.001 682.992,474.765C681.566,470.975 683.458,466.038 683.011,462.281C682.876,461.155 681.644,461.204 681.538,460.148C681.251,457.297 681.649,454.756 681.488,452.478C681.42,451.511 679.715,451.329 679.678,450.472C679.445,445.084 679.929,441.873 679.348,442.002C679.015,442.076 678.382,443.198 678.217,441.546C678.022,439.606 679.271,432.673 678.344,431.104C677.95,430.437 677.117,430.019 677.019,429.233C676.737,426.959 677.402,423.839 676.889,422.107C676.598,421.124 675.636,421.448 675.548,420.481C675.202,416.704 676.112,412.785 675.519,409.704C675.337,408.763 673.504,408.68 673.416,407.762C673.101,404.476 673.794,401.114 673.528,397.898C673.464,397.115 672.926,396.431 672.874,395.62C672.654,392.202 672.935,388.251 672.776,383.901C672.74,382.896 670.785,383.271 670.757,382.183C670.659,378.307 671.057,373.293 670.181,368.038C667.172,349.984 667.901,350.169 667.355,306.975C667.269,300.113 667.294,295.624 667.299,291.848C667.306,286.506 667.412,282.511 667.82,276.003C667.852,275.5 669.327,276.526 669.437,275.85C669.835,273.389 668.776,267.996 669.799,264.458C669.907,264.086 670.688,264.755 670.852,264.387C671.154,263.708 670.243,260.197 670.915,258.557C671.112,258.076 672.535,259.185 672.93,258.405C673.195,257.881 672.658,255.745 672.805,255.28C672.985,254.708 673.753,254.663 673.698,254.253C673.437,252.324 674.071,250.187 673.105,250.542C672.234,250.863 670.884,250.973 670.807,250.481C670.249,246.909 670.745,244.787 670.844,241.826C670.88,240.751 671.182,239.065 670.716,237.571C670.503,236.89 670.006,235.063 669.768,235.137C667.689,235.778 665.623,236.703 664.108,238.228C662.999,239.344 662.219,240.755 661.588,242.03C660.683,243.86 659.816,245.128 658.456,245.993C657.032,246.898 655.092,244.837 652.933,245.785C652.311,246.058 653.602,249.465 652.769,249.211C651.308,248.767 649.275,247.614 649.275,247.614C647.354,246.443 647.568,246.775 645.655,246.432C643.53,246.05 642.176,244.245 642.185,242.493C642.19,241.592 642.885,240.658 643.284,239.397C643.545,238.573 643.718,237.547 643.702,236.557C643.682,235.319 643.491,234.138 643.031,232.239C642.864,231.547 642.153,230.407 641.752,229.673C641.154,228.577 640.746,227.142 640.772,225.856C640.799,224.446 641.25,222.825 640.419,221.993C639.581,221.155 637.213,221.185 635.964,221.2C634.723,221.215 632.634,221.522 631.403,221.26C630.722,221.115 630.365,220.47 629.834,220.197C627.784,219.143 625.824,219.507 624.512,219.898C624.21,219.988 625.042,220.554 624.81,220.668C623.444,221.337 622.224,221.211 621.903,221.532L621.899,225.164Z" style="fill:rgb(251,231,163);stroke:rgb(251,231,163);stroke-width:1px;"/>
    </g>
    <g id="レイヤー5">
        <path d="M538.75,371.925C534.648,373.118 528.539,373.195 524.015,378.055C521.978,380.244 522.688,382.565 523.561,386.869C523.69,387.506 525.027,388.241 524.607,388.86C523.887,389.922 522.782,392.17 522.489,394.225C522.441,394.565 521.976,395.735 521.799,396.183C521.569,396.764 520.869,397.194 520.533,397.017C519.564,396.508 516.388,396.329 514.303,397.274C513.828,397.489 512.202,398.196 512.147,398.976C512.031,400.6 512.518,403.648 512.581,405.972C512.593,406.412 512.569,407.189 512.086,407.741C511.228,408.719 509.352,409.571 507.732,409.87C506.105,410.171 505.94,410.407 504.084,410.884C503.934,410.922 502.947,411.265 502.524,411.426C500.813,412.078 499.575,413.351 498.576,414.595C497.772,415.596 497.495,416.535 497.193,417.589C496.762,419.093 496.683,420.841 496.033,422.008C495.346,423.242 494.073,424.348 493.041,425.056C492.1,425.702 491.814,426.214 490.104,427.154C489.791,427.326 489.132,427.935 489.089,428.334C489.015,429.018 489.245,429.846 489.242,430.877C489.235,432.675 488.997,434.952 488.23,436.021C487.842,436.563 487.233,437.382 486.293,437.925C485.401,438.441 484.072,438.723 482.852,439.001C481.673,439.269 480.15,439.307 478.899,439.284C476.877,439.247 474.181,438.511 472.355,439.305C467.952,441.219 466.754,446.421 466.075,449.092C465.906,449.755 465.729,450.855 465.775,451.939C465.851,453.753 466.226,455.663 467.654,455.934C468.168,456.031 469.865,456.613 470.889,457.253C472.328,458.153 473.635,459.501 474.937,459.967C476.579,460.556 481.829,460.523 484.098,461.733C484.455,461.923 485.09,462.008 485.319,462.244C488.726,465.742 496.859,472.199 496.679,474.399C496.578,475.63 494.49,477.032 493.704,479.038C493.365,479.903 494.525,482.049 493.838,483.092C493.406,483.749 492.105,484.998 492.154,485.817C492.192,486.449 492.308,486.705 492.325,487.402C492.338,487.916 492.096,488.387 491.909,488.775C491.654,489.306 491.554,489.828 491.361,490.118C490.992,490.669 490.609,491.183 490.165,491.804C490.008,492.025 489.817,492.506 489.814,492.761C489.799,494.218 488.672,502.836 486.488,504.419C485.418,505.194 477.273,506.66 473.409,504.45C469.6,502.271 469.555,501.455 467.77,499.75C467.111,499.12 459.907,498.32 456.45,498.396C455.473,498.418 454.558,498.634 454.482,498.774C454.375,498.973 454.026,501.622 454.396,503.995C454.639,505.551 455.24,506.962 455.93,507.629C456.575,508.252 457.093,509.421 457.134,510.715C457.22,513.414 456.036,516.904 455.046,519.058C454.633,519.956 454.528,520.562 453.357,521.981C453.357,521.981 450.345,523.639 449.058,524.204C448.378,524.503 447.693,524.898 447.064,525.231C445.825,525.886 443.094,525.899 441.309,525.004C439.177,523.935 437.488,521.647 435.183,519.342C431.245,515.404 427.663,506.615 424.211,503.747C422.359,502.208 419.401,503.743 417.678,502.505C414.558,500.262 411.817,495.518 409.102,494.085C405.111,491.977 400.476,493.228 397.22,492.596C396.528,492.462 396.462,491.162 395.802,491.073C391.439,490.483 388.48,490.201 385.167,490.985C383.242,491.441 382.758,493.96 381.01,494.571C378.745,495.363 375.899,494.478 373.598,494.649C371.344,494.815 369.094,495.651 367.066,495.34C365.398,495.084 364.524,493.567 362.863,492.238C358.802,488.989 356.487,484.381 354.064,482.354C353.05,481.505 353.068,479.493 352.099,478.949C348.626,476.998 344.667,477.887 338.787,478.78C337.733,478.941 337.114,482.304 335.926,482.396C334.402,482.514 332.119,483.107 330.347,482.985C326.457,482.718 322.154,477.218 317.712,471.932C315.758,469.607 308.035,463.963 306.779,461.362C305.407,458.521 305.441,453.755 307.692,451.188C308.762,449.967 310.462,450.449 312.247,449.616C312.992,449.269 313.272,447.704 314.027,446.958C314.891,446.105 317,446.496 317.843,445.554C320.001,443.142 320.538,439.221 322.025,437.088C322.645,436.2 326.613,437.152 327.134,436.309C327.443,435.809 327.062,434.584 327.129,434.029C328.002,426.771 326.045,411.058 328.601,399.361C329.254,396.374 331.503,392.421 332.134,389.008C332.905,384.842 335.451,382.494 334.833,377.484C334.276,372.962 332.198,369.662 331.402,367.027C330.645,364.518 328.714,362.879 328.175,359.168C327.902,357.286 333.435,352.069 332.906,349.16C332.456,346.684 333.67,343.458 332.993,341.646C332.112,339.29 329.775,339.695 328.526,338.176C325.964,335.062 321.37,331.519 319.916,327.88C319.096,325.829 319.237,322.705 317.605,321.418C314.586,319.037 320.114,317.687 318.799,316.692C317.355,315.599 313.741,311.919 310.58,310.298C309.823,309.91 307.902,308.839 306.21,307.664C304.63,306.567 305.794,303.995 305.746,303.186C305.719,302.727 304.347,302.382 304.179,301.393C303.661,298.353 304.997,293.292 303.077,286.861C302.478,284.856 298.571,283.658 297.438,281.477C296.743,280.138 296.053,277.239 296.639,275.791C297.244,274.296 299.959,272.677 299.487,271.497C299.02,270.329 297.175,269.749 295.614,268.77C293.576,267.492 293.837,265.187 292.811,263.649C292.011,262.448 290.168,261.319 289.447,260.254C288.845,259.364 281.85,256.056 281.308,255.254C279.689,252.856 279.503,250.829 279.49,248.911C279.464,245.042 280.32,244.813 281.04,243.901C281.972,242.718 282.448,242.115 282.251,241.23C281.993,240.073 280.613,239.267 279.847,239.002C278.163,238.417 274.863,239.148 273.12,239.565C270.959,240.082 270.995,238.601 268.974,237.979C266.62,237.255 262.648,238.069 259.41,237.086C254.87,235.709 251.158,232.353 249.979,229.912C249.596,229.12 248.958,227.655 247.414,226.125C245.41,224.14 241.56,221.994 239.902,217.691C239.377,216.327 241.707,215.759 241.686,214.464C241.643,211.646 241.506,207.949 241.702,205.461C241.84,203.718 244.584,200.788 244.283,199.182C243.806,196.633 245.165,191.876 243.978,189.565C243.459,188.554 242.659,188.015 241.87,187.162C239.953,185.09 239.83,179.506 238.685,176.06C238.208,174.622 236.344,170.552 235.211,169.127C234.396,168.101 234.075,168.458 232.245,167.034C231.819,166.702 232.304,165.319 232.002,164.258C231.885,163.846 231.063,163.985 230.774,163.546C230.298,162.821 230.511,160.944 230.713,159.69C231.539,159.742 232.246,159.621 232.734,160.096C234.657,161.973 236.965,164.342 238.722,166.012C239.904,167.136 243.275,165.36 244.997,166.466C249.294,169.228 253.09,173.478 256.58,176.693C257.395,177.443 255.633,180.607 256.545,181.187C261.73,184.485 266.29,187.123 268.89,191.058C269.515,192.004 270.29,192.969 271.139,193.813C271.824,194.492 273.713,192.971 274.401,193.589C275.655,194.716 273.663,198.633 274.904,199.624C276.327,200.759 278.309,199.992 280.183,200.537C280.502,200.629 279.89,201.093 280.001,201.607C280.183,202.451 281.037,203.398 281.544,203.554C284.423,204.435 289.574,204.242 293.017,202.374C294.906,201.35 296.499,199.74 297.844,198.039C299.029,196.541 302.503,194.281 305.016,186.464C305.719,184.279 307.447,181.595 308.345,181.059C309.558,180.335 312.062,181.579 312.905,182.236C314.218,183.26 315.037,178.546 316.808,178.346C319.889,177.997 324.145,179.127 327.712,180.23C329.994,180.936 332.138,182.532 334.285,183.646C336.198,184.638 338.77,183.401 340.552,184.572C342.813,186.055 344.5,190.778 345.389,193.371C345.652,194.138 347.224,196.039 347.848,196.474C350.647,198.425 354.109,200.225 355.122,202.456C357.937,208.662 355.876,213.403 355.798,219.186C355.786,220.098 354.741,220.287 354.688,221.24C354.592,222.96 354.849,224.597 354.736,226.555C354.688,227.376 352.985,228.394 352.938,229.269C352.552,236.458 352.987,246.393 353.066,258.605C353.075,260.022 354.108,261.213 354.751,262.568C355.836,264.854 357.91,278.906 358.72,282.046C359.392,284.655 358.467,288.269 358.864,290.758C361.004,304.152 360.32,316.557 364.878,330.649C367.675,339.299 369.394,359.013 373.482,371.38C375.92,378.756 376.579,383.836 383.208,390.976C383.774,391.586 384.92,391.102 386.23,391.741C388.876,393.031 393.043,399.26 397.616,400.121C399.512,400.478 400.181,400.055 402.223,399.987C402.877,399.965 401.757,398.589 402.43,398.53C406.269,398.189 411.842,398.797 416.285,398.562C417.513,398.497 417.912,399.415 419.064,398.962C421.053,398.182 422.937,395.232 425.195,392.449C427.412,389.714 430.007,387.159 431.51,384.937C432.1,384.064 435.689,380.439 439.408,376.55C441.38,374.487 443.632,372.792 444.959,370.424C446.185,368.237 445.734,365.16 445.747,362.673C445.766,358.685 450.083,363.001 450.543,360.337C450.921,358.146 449.79,344.809 450.098,342.96C450.364,341.361 452.191,338.49 451.409,337.721C450.433,336.764 448.232,337.741 446.385,337.692C442.755,337.595 439.024,335.806 437.729,335.132C437.253,334.885 439.561,333.692 441.808,333.454C444.428,333.176 447.006,332.877 447.853,331.169C448.725,329.411 446.095,325.283 447.751,323.784C449.23,322.446 451.628,321.47 452.868,319.187C453.355,318.289 449.607,317.041 450.436,316.431C451.109,315.934 453.347,314.324 453.69,313.132C454.399,310.668 455.733,307.522 455.841,305.347C455.882,304.531 454.508,300.915 454.736,301.561C454.798,301.733 455.872,302.922 458.078,303.421C459.815,303.813 462.729,302.025 464.979,303.233C467.645,304.665 469.254,308.54 472.349,309.899C475,311.063 480.371,311.36 483.038,311.736C484.687,311.969 485.522,313.505 486.321,315.095C486.637,315.722 486.587,316.394 486.864,317.04C487.24,317.918 488.516,319.125 489.168,319.889C491.324,322.418 497.75,326.124 497.504,329.461C497.37,331.286 497.216,333.231 496.66,334.938C496.414,335.69 497.89,336.861 497.621,337.567C497.171,338.749 493.903,339.848 493.957,340.931C494.018,342.12 493.27,342.294 493.551,343.025C493.887,343.898 495.775,343.05 498.486,343.414C499.79,343.588 506.847,343.231 509.249,343.361C509.979,343.4 509.809,344.117 510.448,344.755C510.869,345.176 512.261,344.266 512.874,344.744C515.073,346.46 517.859,350.777 520.648,353.501C521.12,353.962 522.649,353.663 524.12,353.639C525.656,353.614 527.123,353.999 527.98,354.045C529.514,354.127 531.163,354.016 531.801,355.004C538.138,364.803 538.337,365.998 540.963,370.864L538.75,371.925Z" style="fill:rgb(134,207,255);"/>
    </g>
    <g id="レイヤー6">
        <path d="M306.744,461.332C303.267,458.335 309.598,470.846 304.382,474.477C304.071,474.693 302.576,473.941 302.368,473.692C299.555,470.326 300.573,468.757 298.826,467.995C296.481,466.971 296.655,469.635 296.281,469.592C291.535,469.041 293.672,472.352 293.012,476.82C292.834,478.026 292.455,479.306 291.944,480.573C291.584,481.468 288.253,479.867 287.664,480.825C286.995,481.913 288.734,488.843 287.571,489.761C286.472,490.629 284.038,489.079 282.637,488.171C280.616,486.861 284.828,483.112 280.419,477.538C277.351,473.659 272.679,470.581 270.244,467.869C268.879,466.349 268.961,463.617 267.831,462.556C264.337,459.277 261.807,458.339 261.433,456.406C260.987,454.103 262.329,452.323 261.946,450.788C261.781,450.126 258.69,451.887 257.454,450.855C256.443,450.012 255.94,446.286 254.647,446.208C249.95,445.926 243.948,447.386 243.332,445.544C243.144,444.982 240.955,445.157 240.48,445.153C239.643,445.147 239.135,444.471 238.32,444.285C237.301,444.052 236.159,443.979 235.476,443.183C235.046,442.682 235.386,441.116 235.158,440.137C234.946,439.223 234.685,438.93 233.939,438.587C229.368,436.484 223.104,436.987 222.406,437.541C220.637,438.943 219.781,442.1 216.851,446.021C213.39,450.653 207.111,452.272 206.132,456.595C205.126,461.042 206.899,465.496 206.794,468.399C206.66,472.109 206.412,474.027 206.97,474.354C208.488,475.243 212.519,469.807 215.296,470.071C219.517,470.473 226.318,470.982 225.642,471.61C224.993,472.212 224.448,473.054 222.575,473.99C220.518,475.019 215.049,482.478 212.795,483.12C204.711,485.421 202.957,492.662 199.902,494.733C198.447,495.72 198.399,497.31 195.877,497.67C195.052,497.788 193.534,496.394 192.088,497.955C188.933,501.362 180.069,499.989 177.102,503.249C175.655,504.84 176.404,508.418 176.337,510.318C176.262,512.461 170.094,518.198 168.857,521.634C168.324,523.117 164.827,522.758 164.624,523.95C164.296,525.875 165.226,527.524 165.179,528.332C165.064,530.299 159.436,527.789 157.776,529.405C155.462,531.657 152.645,531.456 151.149,533.322C149.794,535.012 149.971,538.193 151.87,543.582C153.28,547.584 152.229,549.522 152.628,554.234C152.837,556.712 149.483,554.518 143.442,558.161C139.241,560.693 143.465,568.244 141.82,570.786C140.226,573.25 135.255,573.057 134.84,575.474C134.463,577.666 136.38,580.921 138.816,584.574C139.545,585.669 140.631,586.271 141.313,587.22C143.263,589.933 144.556,592.55 145.401,594.774C146.308,597.163 148.2,598.802 148.331,599.693C148.867,603.338 148.679,608.082 148.405,611.058C148.123,614.127 146.458,616.535 146.858,616.494C148.229,616.353 150.265,616.416 150.805,616.069C151.748,615.463 152.159,614.411 153.135,613.961C155.714,612.771 158.911,612.29 161.954,613.725C163.292,614.357 164.418,616.247 166.617,617.179C170.118,618.663 174.835,616.464 177.002,617.489C178.203,618.057 180.561,618.981 181.709,618.255C182.396,617.82 182.531,616.845 183.259,616.319C185.195,614.919 188.532,614.526 191.341,613.55C192.505,613.145 195.91,615.474 196.993,614.814C198.816,613.703 202.268,611.254 204.931,610.45C206.207,610.064 207.231,610.807 208.529,611.203C209.469,611.491 211.702,614.671 212.583,614.929C218.824,616.755 223.672,616.388 226.398,614.762C227.597,614.046 227.707,611.53 228.433,610.293C229.364,608.707 227.832,605.163 229.027,603.436C231.372,600.046 236.879,596.456 239.362,594.547C239.999,594.057 242.77,596.134 243.49,595.813C245.632,594.856 245.543,593.797 246.278,592.548C247.231,590.929 248.242,589.844 249.709,590.495C250.214,590.719 250.794,590.79 251.6,591.766C252.222,592.519 253.446,594.054 255.047,594.952C256.094,595.539 257.486,595.64 258.34,595.813C259.863,596.123 260.205,593.03 261.697,592.763C265.049,592.164 268.757,592.616 269.806,593.913C270.339,594.571 268.32,596.313 267.951,597.05C267.239,598.472 270.048,602.085 270.033,603.447C269.994,606.836 270.961,610.125 271.527,610.578C272.699,611.517 278.633,605.012 281.233,605.821C284.192,606.742 288.172,608.43 289.176,610.142C290.023,611.587 289.359,613.406 289.271,613.778C288.64,616.453 294.356,617.111 296.408,618.316C298.092,619.304 298.751,622.04 300.417,622.568C300.996,622.752 303.327,622.059 303.96,621.916C305.793,621.503 307.992,620.335 308.802,621.626C309.328,622.464 308.261,624.689 308.416,625.491C308.517,626.013 306.876,626.52 306.956,627.031C307.175,628.44 306.962,630.117 307.494,631.045C308.259,632.377 311.203,631.854 311.568,632.892C313.169,637.444 316.273,637.996 318.461,638.46C321.775,639.164 324.406,638.624 324.403,637.717C324.391,634.294 315.471,625.895 321.478,622.616C324.487,620.973 328.731,623.686 330.079,622.059C333.454,617.984 337.132,618.192 338.855,620.712C342.489,626.028 345.617,623.164 348.112,623.168C349.894,623.171 351.021,624.825 351.621,626.299C352.745,629.06 350.901,634.864 353.284,635.005C355.427,635.132 358.08,634.505 362.58,634.024C366.824,633.57 367.831,628.909 369.996,628.156C371.09,627.775 372.498,627.645 374.013,627.12C374.717,626.875 376.04,626.427 375.457,625.063C374.805,623.537 375.237,622.251 376.021,622.002C377.087,621.664 380.159,622.865 381.061,622.088C382.003,621.276 382.018,620.326 382.978,619.864C383.828,619.454 384.96,620.117 385.652,620.324C387.404,620.849 388.555,626.582 389.051,627.539C390.493,630.321 392.733,629.648 394.078,627.988C395.922,625.711 394.098,618.663 396.024,615.509C397.432,613.203 400.602,612.342 402.884,611.283C406.562,609.577 408.665,606.458 412.382,607C415.496,607.454 419.898,613.224 421.753,613.449C423.329,613.639 425.344,612.467 425.647,611.252C425.828,610.528 425.522,609.909 425.421,607.445C425.217,602.462 426.382,594.966 427.614,591.834C428.256,590.202 429.133,588.009 430.879,586.965C431.608,586.529 433.14,586.662 434.212,586.478C435.537,586.252 436.305,585.176 437.06,584.281C438.25,582.872 439.461,583.033 442.668,581.956C442.958,581.858 442.165,580.562 442.471,580.485C443.864,580.137 450.957,580.805 452.082,580.246C452.818,579.88 454.794,579.061 454.802,578.614C454.849,576.052 453.754,572.914 451.539,569.541C447.943,564.066 441.553,559.261 444.772,555.698C445.888,554.464 447.235,553.797 448.311,553.085C449.662,552.191 450.652,551.334 451.169,550.596C451.45,550.195 451.107,548.773 451.027,548.175C450.774,546.278 451.711,541.994 450.894,539.97C450.376,538.689 447.651,537.696 446.998,535.995C446.07,533.579 447.242,525.284 446.174,525.482C441.182,526.409 439.081,523.454 432.824,516.493C432.584,516.225 431.399,514.361 431.19,514.037C429.136,510.851 426.886,505.765 423.776,503.488C422.298,502.406 419.227,503.711 417.072,501.961C414.085,499.537 411.667,494.843 407.794,493.46C404.852,492.41 400.465,493.25 397.466,492.621C396.771,492.475 396.246,491.25 395.555,491.134C391.958,490.531 388.621,490.272 385.422,490.953C383.762,491.307 382.044,494.401 380.496,494.709C379.068,494.993 376.21,494.82 374.746,494.746C371.763,494.595 370.436,495.24 369.074,495.387C367.89,495.515 366.824,495.417 365.768,494.779C362.222,492.638 359.19,487.479 353.931,482.361C353.117,481.569 353.036,479.554 352.005,478.872C350.777,478.059 345.598,477.845 342.865,478.231C341.413,478.437 339.176,478.288 338.25,479.147C337.391,479.945 337.552,481.671 336.311,482.18C332.937,483.566 328.141,482.927 326.62,481.492C320.385,475.612 318.016,471.878 311.451,466.22L306.744,461.332Z" style="fill:rgb(247,161,161);"/>
    </g>
    <g id="レイヤー7">
        <path d="M231.297,168.356C230.478,169.702 229.556,171.204 228.756,172.562C228.3,173.336 227.681,173.481 227.514,174.581C227.363,175.585 227.69,176.846 227.685,177.184C227.57,185.385 227.749,195.176 227.627,205.247C227.617,206.088 227.713,206.757 227.255,207.053C225.746,208.027 226.015,209.051 225.994,209.425C225.759,213.565 227.335,217.834 226.089,221.025C225.128,223.486 222.597,223.868 221.148,225.333C217.868,228.649 216.899,230.49 214.582,231.473C213.56,231.907 211.475,231.236 210.672,229.67C210.435,229.21 208.891,226.642 207.107,226.735C205.117,226.839 198.582,225.883 195.573,227.111C193.772,227.845 195.97,230.358 193.937,230.727C193.283,230.846 192.006,232.46 193.788,235.591C194.686,237.17 196.692,238.026 200.486,237.802C201.672,237.732 208.56,237.523 209.183,237.543C210.136,237.574 210.951,239.696 212.735,241.381C216.577,245.011 222.814,249.299 223.357,252.817C224.152,257.967 224.264,263.058 224.378,267.462C224.615,276.559 225.133,285.638 223.46,304.046C223.361,305.128 222.317,306.276 222.195,307.385C221.938,309.713 221.45,311.987 221.112,314.402C221.009,315.138 220.082,314.751 220.025,316.018C219.755,322.084 220.718,328.165 219.766,334.247C219.54,335.691 217.365,335.531 217.099,336.954C216.753,338.81 217.732,340.729 217.366,342.558C215.878,349.995 214.721,357.76 213.018,363.667C210.835,371.231 209.082,376.739 208.18,378.412C205.496,383.385 203.315,390.262 198.084,398.384C195.484,402.421 192.752,407.572 189.783,412.974C187.979,416.254 186.501,419.593 183.723,422.927C179.837,427.59 175.087,425.257 170.516,422.96C167.123,421.255 164.833,425.191 162.52,427.135C160.623,428.729 159.35,429.817 155.122,433.658C153.688,434.961 149.206,440.467 140.691,445.036C138.131,446.41 132.218,448.403 129.181,446.106C127.5,444.835 124.862,443.039 122.665,440.3C121.527,438.881 121.082,436.476 119.476,435.489C116.559,433.697 112.808,432.457 109.24,432.548C107.001,432.604 105.486,433.902 103.214,434.564C101.744,434.993 99.608,434.442 98.048,436.496C96.598,438.404 96.583,440.084 94.796,441.672C92.06,444.103 86.423,444.896 85.11,448.582C84.251,450.994 82.161,454.752 81.723,458.263C81.251,462.042 79.879,464.98 78.147,468.436C77.533,469.662 73.773,467.655 73.158,468.832C71.583,471.847 72.505,476.111 71.197,479.287C69.528,483.338 64.358,484.712 60.902,487.794C59.994,488.604 59.777,490.149 59.571,491.365C59.057,494.401 57.829,497.938 54.742,501.457C54.002,502.3 53.057,500.149 51.82,499.918C50.469,499.665 47.394,499.255 45.676,499.806C43.575,500.48 42.351,506.743 40.673,507.581C33.703,511.063 26.066,517.373 26.831,522.244C27.263,525.002 28.938,532.818 31.918,534.1C36.906,536.245 39.182,535.434 42.537,534.971C46.545,534.417 49.032,533.127 51.186,534.443C54.276,536.33 58.441,538.217 57.731,540.954C57.235,542.865 56.814,545.48 57.064,548.872C57.176,550.408 61.574,550.406 61.809,552.202C61.989,553.571 60.362,556.912 61.961,556.693C65.849,556.161 62.809,584.853 63.523,591.995C63.721,593.968 61.505,594.208 61.489,598.319C61.464,604.423 59.857,612.446 60.979,617.742C61.294,619.231 62.91,618.439 64.139,619.055C64.821,619.397 66.643,619.826 66.559,619.054C66.432,617.884 67.95,617.316 68.287,617.797C70.228,620.566 71.113,620.506 74.697,621.135C76.428,621.439 78.151,621.659 79.767,620.03C81.653,618.13 83.705,618.242 85.474,619.916C86.73,621.104 91.084,625.042 92.154,624.675C93.588,624.182 92.836,621.096 93.875,619.846C94.526,619.063 95.607,617.137 95.168,615.371C94.387,612.239 92.502,607.749 95.622,607.129C97.031,606.849 99.102,603.24 102.82,602.89C104.627,602.72 106.112,603.077 107.352,601.873C109.302,599.978 111.322,598.485 113.618,598.003C116.392,597.421 119.186,600.241 122.102,602.227C123.784,603.372 124.473,603.841 126.899,607.48C127.653,608.612 125.696,612.834 126.879,613.825C127.94,614.713 128.638,616.608 130.132,616.716C131.841,616.84 133.848,616.374 135.105,616.731C137.059,617.287 139.306,614.831 141.278,614.904C142.672,614.955 145.131,613.701 145.506,614.94C145.806,615.935 146.905,617.131 147.047,616.462C147.509,614.295 149.078,610.096 148.563,603.843C148.453,602.508 148.5,600.917 148.14,599.413C147.788,597.947 146.665,597.31 145.933,595.969C145.309,594.827 144.417,592.957 143.76,591.347C143.08,589.679 142.087,587.99 141.001,586.936C140.14,586.101 137.945,583.402 137.298,582.284C136.39,580.715 134.264,577.34 134.829,575.535C135.367,573.813 137.265,573.474 138.912,572.739C139.988,572.259 141.696,571.413 141.998,570.376C142.801,567.619 140.246,561.071 142.5,558.994C144.151,557.472 147.077,556.052 149.716,555.953C150.577,555.92 151.403,555.566 152.236,555.26C153.049,554.962 152.56,554.129 152.541,553.21C152.496,551.115 152.575,549.139 152.619,547.202C152.672,544.837 149.324,537.375 150.469,534.551C150.75,533.858 151.19,533.275 151.634,532.88C153.248,531.443 154.453,531.497 156.226,530.592C157.142,530.126 157.519,529.221 158.374,528.99C158.783,528.879 160.497,528.739 162.022,529.037C162.772,529.184 163.722,529.269 164.808,529.032C166.058,528.76 163.419,523.977 164.993,523.357C166.149,522.902 167.487,522.842 168.637,521.961C169.114,521.595 169.59,519.929 171.426,517.555C172.342,516.37 174.064,514.373 175.282,512.437C175.629,511.885 176.051,511.485 176.26,510.931C176.636,509.932 176.246,507.828 176.274,506.569C176.299,505.415 176.471,504.711 176.668,504.084C176.932,503.239 177.968,502.473 178.829,502.07C179.744,501.641 181.114,501.304 181.926,501.166C182.746,501.027 183.701,500.796 184.365,500.697C186.451,500.388 188.916,499.9 190.526,499.058C191.437,498.582 192.216,497.69 193.174,497.282C193.938,496.957 195.185,497.678 196.023,497.717C196.415,497.735 197.056,497.287 197.378,497.128C197.98,496.83 198.879,495.928 199.32,495.418C201.322,493.101 203.285,489.982 205.96,487.334C207.669,485.643 210.396,483.926 212.678,483.028C215.324,481.985 216.763,478.993 219.175,477.119C219.96,476.508 220.799,475.09 222.043,474.376C223.587,473.49 225.203,472.204 225.644,471.489C225.786,471.26 224.631,471.006 223.855,470.941C222.17,470.802 218.097,470.124 214.848,470.148C214.541,470.151 214.106,470.262 213.865,470.31C213.161,470.449 209.968,473.015 208.217,474.165C207.575,474.587 206.706,474.455 206.677,473.857C206.615,472.552 206.666,470.444 206.79,468.717C206.852,467.845 206.477,466.251 206.381,465.032C206.152,462.097 205.364,457.774 206.389,455.791C207.361,453.909 208.241,452.794 210.615,451.451C211.304,451.061 212.186,450.336 213.664,449.15C215.098,447.997 217.105,446.444 219.32,442.066C220.397,439.939 221.444,437.868 222.689,437.413C223.952,436.952 225.639,436.987 227.784,437.176C230.208,437.389 233.173,437.833 234.584,439.017C235.555,439.832 235.102,442.816 235.741,443.508C236.364,444.184 238.701,444.055 239.294,444.721C240.371,445.93 242.358,444.445 243.334,445.621C244.653,447.211 250.675,445.983 252.592,446.175C253.407,446.257 254.359,446.138 254.873,446.409C256.121,447.068 256.125,448.69 257.099,450.477C257.486,451.187 258.291,451.271 259.737,451.053C261.278,450.82 262.033,450.045 262.015,451.419C262.008,452.015 261.557,453.467 261.429,454.059C261.217,455.04 261.332,456.41 261.71,457.11C262.073,457.784 263.111,458.723 263.698,459.203C265.332,460.54 267.806,461.705 268.503,463.668C268.812,464.538 269.001,465.381 269.281,466.193C269.43,466.621 269.662,467.031 269.9,467.446C270.104,467.802 270.512,468.116 270.87,468.493C271.869,469.547 273.229,470.714 274.456,471.733C275.637,472.714 276.257,473.349 277.206,474.17C278.933,475.664 280.541,477.334 281.533,479.272C281.894,479.976 282.242,481.07 282.427,481.833C282.955,484.003 281.17,487.396 282.826,488.352C285.846,490.097 286.682,490.309 287.601,489.652C288.416,489.069 287.617,484.693 287.57,483.106C287.562,482.823 287.476,480.965 287.686,480.785C288.37,480.202 289.247,480.657 289.991,480.749C290.663,480.831 291.905,481.072 292.037,480.417C292.202,479.596 292.78,478.462 293.013,477.079C293.377,474.927 292.845,471.868 293.292,470.601C293.686,469.483 295.001,469.653 296.072,469.576C296.824,469.521 296.672,468.677 296.935,468.299C297.268,467.82 297.538,467.842 297.776,467.82C298.643,467.741 298.908,467.909 299.371,468.328C299.933,468.837 300.594,470.901 300.796,471.442C301.188,472.491 303.441,475.248 304.55,474.37C305.087,473.944 306.26,473.565 306.545,472.57C307.173,470.374 306.178,466.233 306.067,465.578C305.84,464.246 305.833,460.12 305.827,459.254C305.825,458.909 305.77,455.808 305.944,455.042C306.672,451.834 307.924,450.734 309.226,450.372C310.301,450.074 311.443,450.098 312.519,449.316C312.91,449.032 313.391,447.462 314.052,446.907C314.743,446.327 315.767,446.349 316.071,446.326C317.028,446.252 317.562,445.74 318.018,445.237C319.588,443.505 320.255,440.514 321.103,438.916C321.335,438.479 321.472,438.021 321.717,437.585C322.271,436.599 323.013,436.807 323.671,436.709C325.201,436.482 327.403,437.268 327.223,435.56C327.16,434.964 327.076,434.555 327.131,433.892C327.367,431.059 327.356,427.117 327.282,422.584C327.255,420.977 327.228,418.791 327.254,417.239C327.334,412.366 327.166,407.1 328.168,401.413C328.401,400.086 328.626,398.714 329.135,397.64C330.764,394.202 331.777,389.853 332.811,386.645C333.276,385.202 334.443,383.231 334.73,381.24C335.078,378.826 334.488,376.106 334.17,374.521C333.747,372.416 332.72,370.069 331.782,368.01C331.107,366.529 330.544,365.425 329.923,364.159C329.337,362.965 328.657,360.948 328.415,359.531C328.181,358.157 330.062,355.588 330.84,354.36C331.744,352.933 332.624,351.127 332.838,349.774C333.038,348.514 332.692,347.186 332.832,346.03C333.04,344.311 333.467,341.262 332.236,340.387C330.915,339.449 329.217,339.115 328.345,337.944C325.608,334.266 319.803,330.275 319.21,325.309C319.105,324.429 318.798,323.382 318.386,322.336C318.046,321.472 316.489,320.943 316.669,320.168C316.935,319.019 317.589,318.363 319.022,317.258C319.381,316.982 318.423,316.563 317.628,315.723C316.412,314.439 314.513,313.009 313.248,311.973C313.248,311.973 312.052,311.162 310.588,310.314C308.774,309.265 306.275,308.163 305.671,307.14C305.18,306.306 305.596,304.239 305.734,303.258C305.806,302.753 304.248,302.018 304.186,301.532C303.999,300.063 304.031,298.865 304.067,297.631C304.139,295.204 304.267,292.934 303.952,290.656C303.793,289.509 303.349,288.044 303.162,287.13C302.905,285.876 300.726,284.418 299.696,283.784C299.046,283.384 297.422,281.648 297.134,280.847C296.774,279.843 296.266,277.684 296.457,276.43C296.585,275.588 297.14,274.956 297.376,274.657C298.45,273.296 300.389,272.333 299.174,270.961C298.498,270.197 297.133,269.576 296.278,269.187C295.564,268.861 294.935,268.445 294.532,267.846C293.709,266.62 293.484,264.542 292.719,263.472C291.782,262.164 290.237,261.296 289.367,260.193C288.82,259.5 287.536,258.857 286.879,258.537C285.863,258.042 284.742,257.499 283.982,256.982C282.958,256.287 281.884,255.853 281.266,255.133C280.458,254.191 280.06,252.943 279.818,251.971C279.475,250.6 279.471,248.722 279.525,247.328C279.557,246.485 279.784,245.416 280.34,244.728C281.044,243.857 281.666,243.211 282.128,242.275C282.291,241.945 282.322,241.37 282.159,240.918C281.927,240.28 281.255,239.863 280.891,239.538C279.609,238.393 277.436,238.798 276.26,238.939C275.066,239.082 273.863,239.481 272.602,239.648C272.299,239.688 271.909,239.673 271.563,239.538C271.129,239.37 270.744,239.049 270.459,238.818C269.196,237.796 267.488,237.516 265.817,237.633C263.421,237.8 260.487,237.507 257.917,236.544C256.676,236.08 255.323,235.325 254.406,234.594C253.458,233.838 251.334,232.269 250.413,230.665C249.842,229.67 249.429,228.822 248.702,227.603C247.766,226.036 245.296,224.27 243.331,222.549C242.133,221.499 241.289,220.451 240.744,219.523C240.316,218.796 239.671,217.685 239.914,216.943C240.184,216.118 241.323,215.615 241.585,214.813C241.893,213.872 241.64,212.029 241.582,211.064C241.469,209.164 241.668,207.016 241.72,205.347C241.743,204.604 242.456,203.385 242.925,202.711C243.816,201.429 244.389,200.117 244.148,198.602C243.992,197.623 244.282,195.897 244.378,194.657C244.475,193.412 244.602,192.035 244.391,190.677C244.223,189.597 243.346,188.656 242.448,187.832C240.592,186.13 239.966,182.498 239.305,178.572C238.969,176.575 238.101,174.852 237.393,173.017C236.911,171.77 236.212,170.598 235.388,169.458C234.579,168.338 233.222,167.761 231.997,167.192L231.297,168.356Z" style="fill:rgb(163,217,165);"/>
    </g>
    <g id="レイヤー8">
        <path d="M700.342,526.606L700.171,527.832C700.171,527.832 699.929,528.864 699.961,529.273C700.046,530.346 700.176,530.084 700.207,530.299C700.452,530.574 701.223,531.455 701.675,531.949C702.51,532.861 703.728,535.653 703.728,535.653L705.594,539.375C706.159,540.698 706.882,541.957 707.604,543.501C707.852,544.032 708.259,544.565 708.644,545.121C709.166,545.874 710.78,546.737 710.96,547.532C711.102,548.159 710.984,548.772 710.881,549.336C710.817,549.685 709.545,548.925 709.49,549.27C709.319,550.343 709.036,551.708 709.633,552.625C709.901,553.038 712.116,552.571 712.478,552.937C715.378,555.867 718.634,559.689 720.816,562.17C722.448,564.025 724.216,565.781 725.573,566.874C726.362,567.51 727.138,568.033 728.035,568.209C729.336,568.464 730.385,568.632 732.581,568.186C733.176,568.065 734.462,567.741 734.87,567.479C735.32,567.19 735.607,566.818 735.898,566.345C736.051,566.097 736.613,564.704 736.695,564.497C737.367,562.803 737.955,562.057 738.929,561.566C739.633,561.212 740.231,560.854 740.84,560.603C741.891,560.171 742.859,559.938 743.621,559.737C744.766,559.436 745.752,559.174 746.462,559.467C747.176,559.761 747.642,560.589 748.033,561.639C748.633,563.25 748.786,563.889 749.24,565.29C749.763,566.907 750.554,568.776 750.67,569.852C750.752,570.621 752.704,571.898 753.456,572.329C754.675,573.027 756.514,573.597 758.024,574.492C759.648,575.455 760.925,576.748 761.626,577.655C763.943,580.652 765.746,583.891 767.791,587.144C770.049,590.737 771.427,593.096 773.196,595.554C773.986,596.652 774.957,597.687 775.943,599.004C778.076,601.854 781.973,604.713 785.212,607.902C786.344,609.017 787.691,609.728 788.364,611.073C788.64,611.625 788.451,613.684 788.391,614.353C788.23,616.149 787.028,616.589 784.347,618.865C782.484,620.448 780.579,622.355 778.269,623.923C775.168,626.025 772.74,626.755 768.957,627.312C765.335,627.846 762.309,629.1 759.341,630.187C757.194,630.974 754.851,632.299 753.008,633.788C751.729,634.82 750.665,635.783 749.959,636.856C747.745,640.221 748.397,644.023 748.296,645.469C748.238,646.291 749.842,645.954 750.046,646.283C750.635,647.234 750.561,649.57 750.117,650.33C749.403,651.551 745.826,656.16 742.895,658.685C742.313,659.186 741.339,660.514 740.539,660.588C739.665,660.669 738.946,660.43 738.028,660.685C737.766,660.757 736.974,661.211 736.589,661.74C735.901,662.686 735.798,664.379 733.757,666.343C732.514,667.539 730.972,668.378 729.448,668.168C728.387,668.023 726.794,667.302 725.805,666.703C724.46,665.889 722.631,664.886 720.92,664.751C720.653,664.73 719.312,664.248 718.973,664.011C716.204,662.075 713.257,658.924 710.46,656.613C708.815,655.253 707.167,653.479 705.08,652.735C703.627,652.217 701.672,652.527 700.104,652.537C699.364,652.541 700.132,653.504 699.3,653.604C696.121,653.989 690.91,653.4 687.55,653.639C686.414,653.721 685.646,656.869 684.619,658.972C684.125,659.982 683.422,660.634 682.936,660.69C679.937,661.038 677.074,661.111 673.488,660.193C672.416,659.919 671.419,658.537 670.611,657.559C669.956,656.765 668.324,656.347 667.148,656.187C666.531,656.104 665.754,656.179 665.166,656.64C664.814,656.916 665.533,657.739 666.129,658.986C666.996,660.8 668.717,660.793 668.237,660.881C667.882,660.947 669.151,664.916 667.607,666.406C664.955,668.965 661.918,671.493 659.431,673.483C658.158,674.502 657.062,675.356 655.923,676.2C655.166,676.762 654.456,677.508 653.424,677.612C652.792,677.675 652.089,676.844 651.774,676.398C650.184,674.147 651.145,674.142 648.788,672.375C648.26,671.979 646.689,671.027 645.994,669.806C645.616,669.14 645.593,668.366 645.629,667.697C645.665,667.045 646.159,663.793 646.261,662.305C646.291,661.859 646.078,661.139 645.87,660.852C644.766,659.332 643.405,658.669 641.42,656.912C641.091,656.621 638.849,655.136 638.224,655.073C637.958,655.046 637.672,654.941 636.854,655.36C635.921,655.839 635.048,657.076 633.933,657.352C633.016,657.58 632.165,657.559 631.187,657.838C629.219,659.037 628.286,661.291 626.77,664.399C625.947,666.085 625.862,667.275 625.063,668.296C623.968,669.693 623.268,669.882 622.647,669.668C621.405,669.24 619.166,668.352 617.86,667.899C617.037,667.614 616.235,667.762 615.576,667.996C614.055,668.536 611.934,670.598 610.725,671.746C597.777,684.04 600.86,681.956 597.181,684.904C596.608,685.363 594.848,686.782 594.069,687.487C593.437,688.058 591.815,689.077 590.543,689.394C590.015,689.525 589.018,689.637 588.321,689.681C586.099,689.821 583.577,689.557 581.374,689.518C581.081,689.512 580.291,689.332 579.734,689.433C579.201,689.53 578.965,689.763 578.839,689.831C578.524,690.002 577.121,691.689 576.528,691.895C575.249,692.339 574.184,692.723 573.303,693.352C572.332,694.045 571.367,694.876 570.27,694.876C567.413,694.875 566.909,694.27 564.215,695.471C560.611,697.077 558.087,699.031 555.761,700.428C552.515,702.377 550.137,703.789 548.872,705.132C548.278,705.761 549.301,707.577 549.014,708.577C548.626,709.931 549.322,710.601 549.437,710.85C550.35,712.822 551.114,714.178 551.047,715.927C551.013,716.81 550.708,717.75 549.111,718.664C547.358,719.668 544.711,720.286 542.56,720.599C541.13,720.807 539.621,720.892 538.273,721.443C536.398,722.209 534.744,723.626 533.266,725.37C532.465,726.315 531.297,727.711 530.371,728.064C528.538,728.763 527.5,728.848 525.39,728.954C522.577,729.095 519.838,732.692 517.918,734.938C517.423,735.519 515.832,737.722 515.53,737.82C514.83,738.047 514.547,738.032 513.955,738.181C513.478,738.3 511.797,738.763 509.888,739.007C507.213,739.349 504.117,739.47 503.477,739.441C500.552,739.306 498.47,739.357 497.277,738.704C495.997,738.004 495.81,737.151 495.654,736.774C494.65,734.335 494.029,732.636 494.029,732.636C494.029,732.636 486.076,724.854 485.253,722.213C484.647,720.267 484.598,718.801 484.505,717.217C484.413,715.662 484.443,713.116 484.706,711.693C484.772,711.336 486.259,710.981 486.269,710.597C486.277,710.279 486.172,708.595 486.148,707.985C486.137,707.72 486.109,707.317 486.436,707.089C486.858,706.795 487.53,707.213 487.502,705.438C487.491,704.776 487.647,702.864 487.269,702.626C486.986,702.449 486.734,702.847 486.25,702.772C485.451,702.648 484.5,702.399 483.826,702.025C483.325,701.748 482.897,700.911 482.864,700.629C482.507,697.628 482.556,695.485 483.366,695.083C483.712,694.912 484.191,694.955 484.483,694.818C485.801,694.199 486.566,693.992 487.367,692.838C487.627,692.463 487.682,687.154 487.421,684.978C487.336,684.272 487.411,683.093 487.252,682.487C486.98,681.449 487.572,681.22 488.114,680.728C488.785,680.119 489.455,679.404 490.053,678.779C490.771,678.028 491.712,676.943 492.342,675.838C492.628,675.337 493.372,673.62 492.814,671.511C492.742,671.238 492.437,670.813 492.049,670.601C491.6,670.355 491.038,670.181 490.723,669.914C490.346,669.594 490.271,669.094 490.291,668.488C490.303,668.101 490.498,667.844 490.632,667.668C490.746,667.519 491.312,667.11 491.479,667.05C492.096,666.829 492.257,666.828 492.49,666.882C493.278,667.063 492.915,667.698 493.851,669.615C494.05,670.024 494.499,670.077 495.09,669.919C495.421,669.831 495.817,669.761 496.207,669.669C496.933,669.497 497.671,669.327 498.106,669.28C500.509,669.021 501.88,667.958 502.329,666.619C502.801,665.21 504.019,664.744 504.094,663.991C504.43,660.621 504.561,655.62 504.133,653.765C503.93,652.886 503.564,652.052 503.087,651.436C502.699,650.935 502.073,650.153 501.709,649.587C501.528,649.306 501.272,648.931 501.171,648.621C500.965,647.988 500.795,647.357 500.84,646.458C500.889,645.458 501.081,644.198 500.926,642.531C500.768,640.832 500.14,638.747 499.038,636.531C498.947,636.348 497.721,636.422 497.665,636.202C497.437,635.307 497.299,633.227 497.428,631.926C497.614,630.055 497.744,630.041 498.578,629.176C498.804,628.941 499.585,628.434 499.648,628.26C500.082,627.054 500.03,624.587 500.02,624.433C499.928,623.124 500.585,623.216 501.198,622.911C502.203,622.411 502.78,621.771 503.465,620.928C504.088,620.161 504.839,618.4 504.991,617.407C505.151,616.358 504.571,613.057 505.128,610.984C505.319,610.272 505.633,609.409 505.877,608.946C506.484,607.792 507.054,607.085 508.079,606.076C509.534,604.644 510.876,603.951 512.238,602.665C513.596,601.382 514.904,600.009 516.402,598.981C518.743,597.375 519.935,597.625 521.937,597.436C523.826,597.258 525.354,597.18 526.64,596.995C530.592,596.427 532.232,595.611 534.88,593.942C535.368,593.634 536.132,592.938 536.612,592.544C537.958,591.44 539.369,590.125 540.675,588.701C540.938,588.414 541.741,588.078 542.288,588.058C542.762,588.04 543.675,588.178 544.349,588.256C544.98,588.329 545.721,588.336 546.074,588.249C547.309,587.948 547.999,587.658 549.014,587.207C550.214,586.673 551.315,586.203 552.622,585.878C553.53,585.651 554.098,585.755 554.508,585.776C556.233,585.864 557.818,585.798 559.23,585.82C562.705,585.873 565.204,585.925 566.382,586.039C567.764,586.174 569.547,586.38 571.826,586.673C573.428,586.878 574.616,587.428 576.248,587.482C577.148,587.511 578.628,587.859 579.322,588.19C581.493,589.226 582.589,591.055 582.614,589.362C582.632,588.152 582.46,586.591 583.341,586.184C583.969,585.894 585.105,585.099 585.927,584.272C586.387,583.809 586.766,583.372 586.992,583.047C587.341,582.544 587.62,582.162 587.679,581.627C587.737,581.087 587.75,580.541 588.122,579.932C588.421,579.442 588.528,579.071 589.253,578.865C589.734,578.729 590.659,578.879 591.367,578.702C592.354,578.454 593.01,578.14 593.445,577.858C593.941,577.537 594.558,577.062 595.102,576.526C595.737,575.9 596.335,575.229 596.728,574.757C596.99,574.443 597.271,574.159 597.406,573.778C597.536,573.412 597.55,572.976 597.53,572.57C597.477,571.528 597.043,569.787 597.2,568.988C597.295,568.5 597.371,568.35 597.695,568.027C597.969,567.754 599.086,567.077 599.701,566.93C600.089,566.837 601.064,567.05 601.468,567.162C601.752,567.241 602.441,567.239 602.776,566.975C603.219,566.625 603.841,566.105 604.182,565.772C604.755,565.211 605.479,564.824 606.216,564.523C607.246,564.103 608.695,563.868 609.842,563.723C610.106,563.689 610.487,563.702 610.902,563.749C611.357,563.801 611.851,563.887 612.197,563.844C613.143,563.729 613.842,563.453 614.504,563.133C615.116,562.837 615.701,562.507 616.317,562.14C616.761,561.876 618.494,562.378 619.49,562.355C620.21,562.339 620.269,562.038 620.496,561.78C621.82,560.275 623.121,557.234 624.213,555.269C624.875,554.08 625.25,553.094 625.865,552.599C626.116,552.397 626.338,552.23 626.765,552.25C627.416,552.279 627.92,552.581 628.566,552.709C629.317,552.858 630.094,552.632 630.279,552.038C630.476,551.403 630.219,550.466 630.121,549.69C629.97,548.482 630.468,547.328 631.803,547.146C633.265,546.947 634.623,547.272 636.046,547.918C636.937,548.322 638.061,548.784 639.102,549.195C639.456,549.334 640.216,549.31 640.905,549.2C641.494,549.105 642.264,548.904 642.813,548.65C643.653,548.261 644.106,547.795 644.431,547.356C644.489,547.278 644.588,547.1 644.64,547.025C645.523,545.756 644.021,543.043 644.372,541.192C644.452,540.766 644.659,539.873 645.041,539.48C645.985,538.51 648.016,538.406 649.505,538.487C649.819,538.504 650.79,537.665 651.412,537.195C651.678,536.994 651.92,536.896 651.955,536.903C652.278,536.966 652.606,537.322 652.841,537.53C654.338,538.858 655.872,542.915 657.283,547.285C657.44,547.772 657.94,547.885 658.55,547.836C659.4,547.768 661.858,546.768 662.526,545.947C662.776,545.638 662.946,545.239 663.192,544.793C663.818,543.654 664.389,541.936 664.942,540.73C665.658,539.168 666.364,537.83 666.478,537.644C666.819,537.086 666.918,537.079 667.167,537.017C668.12,536.778 669.31,536.892 670.338,536.979C672.517,537.162 674.857,537.393 676.904,537.508C679.4,537.648 681.843,537.126 682.795,536.352C683.501,535.778 683.927,533.605 684.956,533.314C685.805,533.075 686.971,533.348 687.501,533.413C687.679,533.435 688.684,533.349 689.013,533.225C690,532.853 691.63,531.908 693.252,531.138C694.689,530.456 695.783,529.856 696.972,529.131C698.76,528.041 700.156,526.724 700.342,526.606Z" style="fill:rgb(201,161,247);stroke:rgb(201,161,247);stroke-width:1px;"/>
    </g>
</svg>
