<!--?xml version="1.0" encoding="utf-8"?-->
<!-- Generator: Adobe Illustrator 22.1.0, SVG Export Plug-In . SVG Version: 6.00 Build 0)  -->
<svg version="1.1" id="_x34_" xmlns="http://www.w3.org/2000/svg" xmlns:xlink="http://www.w3.org/1999/xlink" x="0px" y="0px" viewBox="0 0 800 778.269" style="enable-background:new 0 0 800 778.269;" xml:space="preserve">
<style type="text/css">
	.st0{fill:#e6e6e6;}
</style>
<g>
	<path class="st0" d="M41.846,651.458c4.685,0.929,5.743,6.187,10.081,5.709c4.334-0.489,7.701-5.301,9.624-3.378
		c1.927,1.934,7.711,6.262,7.711,3.378c0-2.889,2.406-5.779,0.961-8.668c-1.444-2.889,0.484-6.75,3.851-9.151
		c3.373-2.411,6.262-1.933,7.707-2.889c1.445-0.967,5.774-3.368,9.145-2.89c3.373,0.479,13.003,4.335,13.003,7.702
		c0,3.372,2.894,10.117,6.261,9.629c3.373-0.478,12.041-1.445,14.929-0.478c2.884,0.966,13.963-2.89,16.852-2.89
		c2.889,0,4.335,3.856,6.262,3.856c1.928,0,5.778-1.933,7.701,0c1.928,1.923,8.19-0.966,13.486-2.412
		c5.3-1.444,10.111-0.478,12.034-1.444c1.928-0.96,11.08-2.406,12.524-1.445c1.444,0.967,3.85,3.368,3.85,3.368
		s8.667,0.967,10.595-1.923c1.922-2.889-0.483-8.184,2.889-12.518c3.373-4.334,7.706-7.229,11.557-7.229
		c3.851,0,4.335-4.333,7.224-4.333c2.889,0,4.334,4.333,7.701,4.333c3.377,0,11.078-2.889,13.001-1.923
		c1.927,0.967,0.483,8.186,1.444,11.563c0.967,3.368,1.929,3.846,4.823,3.846c2.884,0,8.662-1.923,11.073-0.478
		c2.406,1.444,3.851,4.333,5.296,5.779c1.445,1.439,6.74,8.661,11.557,8.661c4.811,0,7.217-1.444,7.701,0.967
		c0.483,2.406-1.445,3.373-2.89,5.295c-1.444,1.934-0.961,4.823,2.412,4.823c3.373,0,1.923,2.401,4.817,3.368
		c2.889,0.961,4.812,0.478,7.218,1.922c2.41,1.449,4.822-1.922,1.927-5.29c-2.889-3.378-3.85-9.64,0-9.64
		c3.856,0,12.519-1.922,12.519-3.846c0-1.932,4.822,3.368,7.706,4.812c2.889,1.444,11.557,1.928,11.557,4.817
		c0,2.89-0.479,7.701,2.411,7.224c2.884-0.49,9.629-1.445,12.035-3.856c2.411-2.401,9.151-9.151,9.151-9.151
		s4.335-0.478,8.186-0.956c3.85-0.49,7.706,8.184,10.595,6.261c2.889-1.933-0.962-10.595,0.961-11.561
		c1.928-0.967,7.707-1.924,7.707-1.924s5.295-6.262,7.701-6.262c2.41,0,5.778-0.488,8.189-1.444
		c2.407-0.967,5.778,4.817,7.224,2.889c1.445-1.933,2.405-7.701,2.884-11.557c0.483-3.85-0.478-9.628,2.895-12.517
		c3.372-2.895,4.807-0.962,6.734,1.445c-0.96-6.741,7.712-6.741,18.303-8.663c0,0,0,0,2.889,3.845c0,0,5.778-1.923,11.551-4.812
		c5.778-2.889,8.668,7.701,10.601,14.44c1.923,6.746,5.783,12.53,2.889,15.419c-2.889,2.88-8.667-6.745-8.667-6.745
		s-4.823,2.889-1.934,6.745c2.889,3.845,2.889,7.701-2.889,10.586c-5.773,2.89-6.74-5.774-10.59-7.706
		c-3.851-1.924-2.885,3.861,0,7.706c2.091,2.799,3.159,6.086,0.663,8.057c1.291-0.35,2.564-0.68,3.676-0.834
		c3.367-0.483,8.662-2.889,11.074-0.961c2.411,1.922,3.855,2.889,6.257,1.922c2.411-0.962,5.784-3.851,10.117-4.328
		c4.334-0.49,12.518,0,11.551,2.406c-0.956,2.411,0,6.734,1.455,8.179c1.435,1.444-1.933,13.007,0.957,14.451
		c2.889,1.445,4.329,18.78,1.444,21.192c-2.889,2.401-4.334,2.889-6.745,1.922c-2.406-0.966-2.889-5.778-4.807-3.851
		c-1.933,1.929,0,4.818,0,6.262c0,1.445,0.956,8.184-1.455,9.63c-2.401,1.445-1.434,5.778-1.911,7.222
		c-0.49,1.445,0.477,7.218-3.379,8.663c-3.856,1.444-0.966,3.856,0.967,4.822c1.922,0.956,5.289,1.922,3.366,5.295
		c-1.933,3.367-6.256,12.034-4.334,13.963c0.308,0.308,0.759,0.685,1.275,1.098c2.3-0.616,4.976-0.616,6.426-1.098
		c-1.45,0.483-4.127,0.483-6.426,1.098c2.762,2.21,7.797,5.853,7.388,9.497c-0.479,4.333,2.411,6.257,6.267,7.223
		c3.856,0.955,13.007,3.366,15.407,2.401c2.401-0.956,6.257-9.624,10.595-10.107c4.323-0.484,9.629-4.335,12.519-7.701
		c2.889-3.378,12.517-0.967,14.928-5.301c2.412-4.339-2.889-12.518,0-13.962c2.89-1.45,12.996-3.862,14.451-7.707
		c1.435-3.851,5.285-2.89,9.624-3.851c4.329-0.967,9.151-4.823,11.068-3.856c1.933,0.966,10.122-0.967,13.007-2.411
		c2.889-1.445,4.334-5.29,6.745-7.213c2.411-1.933,21.664-16.857,24.559-18.302c2.889-1.444,11.074-5.779,14.446-6.257
		c3.373-0.488,8.662,4.813,8.662,7.213c0,2.411,2.894,6.262,2.894,6.262s0.962,7.222,5.768,6.745
		c4.823-0.478,7.233-3.856,9.64-4.334c2.401-0.478,3.856-8.184,5.768-10.595c1.933-2.412,4.791-2.288,6.273-1.922
		c5.767,1.445,8.657,1.922,10.113-0.967c1.439-2.889,5.784-5.779,11.551-5.779c5.784,0,12.518-1.927,14.446,0
		c1.928,1.934,5.301,6.257,8.189,7.701c2.89,1.445,7.701,5.301,9.63,6.267c1.933,0.962,6.734-1.449,10.59-3.377
		c3.861-1.923,11.074-6.257,12.518-11.552c1.444-5.3,1.444-17.818,5.784-20.23c4.334-2.401,18.775-5.774,23.114-8.662
		c4.143-2.761,12.667-10.351,15.1-13.123c-1.625-1.652-3.234-3.081-4.626-4.089c-3.978-2.889-8.306-7.585-10.473-8.668
		c-2.172-1.089-5.423-8.672-6.501-11.562c-1.089-2.889-5.423-5.773-6.857-6.495c-1.456-0.722-2.889-2.89-3.261-4.696
		c-0.356-1.806-5.412-2.89-9.018-4.334c-3.616-1.45-3.261-11.196-3.983-13.001c-0.722-1.812-2.166,1.444-3.611,1.444
		c-1.435,0-3.968-2.889-5.051-0.722c-1.089,2.167-5.413,7.584-8.662,6.862c-3.261-0.722-9.029-1.445-10.122-4.694
		c-1.079-3.256-10.107-10.84-10.83-13.724c-0.727-2.889-1.083-1.811-3.617-5.418c-2.523-3.611-14.802-34.676-18.048-48.028
		c-3.25-13.368-1.815-10.118-3.977-15.54c-2.161-5.413-13.363-70.781-15.168-92.451c-1.806-21.664-3.617-47.667-5.057-49.84
		c-1.45-2.166-1.45-2.523-1.083-6.862c0.361-4.334,2.162-76.809,3.128-80.655c0.966-3.855,2.406-9.629,0.966-13.007
		c-1.455-3.372-2.889-30.819-1.932-43.816c0.966-13.001,6.74-39.004,9.151-53.45c2.411-14.447,14.929-55.857,17.34-60.197
		c2.412-4.334,3.368-6.74,1.923-10.107c-1.444-3.378,0.966-6.257,1.922-9.146c0.967-2.894,1.45-6.75,1.45-6.75
		s3.373-10.597,1.444-12.997c-1.927-2.41-3.851,5.774-8.184,11.074c-4.333,5.295-17.335,17.33-19.264,19.741
		c-1.927,2.406-19.258,11.557-30.342,15.891c-11.069,4.334-34.183,2.889-44.29-5.779c-10.123-8.667-24.08-16.369-28.425-23.114
		c-4.324-6.74-11.063-14.924-14.44-16.857c-3.368-1.922-9.151-15.408-12.518-17.809c-3.379-2.411-13.963-9.151-17.331-10.595
		c-3.372-1.444-16.379,0.956-22.158,0c-5.774-0.966-19.741-7.701-21.186-12.518c-1.445-4.822-4.817-10.118-9.63-12.039
		c-4.817-1.933-7.706-4.335-12.039-11.557c-4.335-7.229-5.779-6.262-5.295-3.851c0.483,2.406-2.889,12.029-4.822,14.919
		c-1.923,2.895,3.856,6.261,5.783,9.64c0,0-2.576,7.515-5.544,13.448c-2.958,5.927-10.67,17.198-12.449,18.977
		c-1.778,1.778-1.778,8.901-4.153,10.079c-2.369,1.19-11.265,4.748-11.86,12.46c-0.594,7.712-2.969,22.541-4.749,31.432
		c-1.778,8.901-9.485,17.202-9.485,17.202s-1.19,4.148-0.595,10.086c0.595,5.932,0.595,13.639-3.559,21.349
		c-4.153,7.712-1.183,8.302-4.742,11.861c-3.558,3.552-3.558,4.742-0.595,6.522c2.969,1.779,1.779,22.541-2.373,24.908
		c-4.148,2.375-0.59,14.24-2.375,25.509c-1.774,11.266,4.748,13.635,7.122,15.413c2.369,1.79,9.49,5.938,12.455,2.97
		c2.964-2.97,7.712-19.572,18.981-20.75c11.266-1.19,19.566-2.38,21.935-5.348c2.38-2.959,10.091-3.554,13.049-2.369
		c2.975,1.19,8.313-1.184,10.092-5.932c1.778-4.747,10.67-8.891,17.787-6.522c7.122,2.373,14.244,7.712,19.576,8.901
		c5.338,1.179,9.492-5.337,13.05-10.68c3.559-5.337,12.45-7.117,17.787-7.717c5.337-0.59,8.312-10.08,10.68-11.854
		c2.369-1.78,8.902-8.897,7.701-11.27c-1.179-2.369-6.511,9.49-8.891,6.522c-2.379-2.959,5.339-7.117,7.117-12.45
		c1.774-5.342,7.122-15.422,11.265-11.269c4.158,4.147,17.208,14.829,23.14,21.94c5.927,7.122,17.198,30.841,18.382,42.701
		c1.183,11.87,2.368,17.202-2.375,22.539c-4.737,5.339-11.859,17.204-10.67,22.541c1.179,5.337-0.599,8.302-0.599,16.014
		c0,7.707-1.78,27.278-4.149,34.406c-2.369,7.112-5.927,19.571-7.122,26.683c-1.179,7.117-13.049,26.688-17.786,35.59
		c-4.743,8.89-18.382,17.792-26.694,17.192c-8.296-0.584-13.049-4.142-14.829-9.486c-1.78-5.337-5.332-15.417-12.449-14.827
		c-7.112,0.595-12.46-5.338-15.424-7.707c-2.958-2.374-9.492-5.342-14.829-3.553c-5.338,1.774-7.712-2.379-5.933-4.748
		c1.785-2.38,8.313-4.748,2.974-9.492c-5.343-4.748-7.122-7.712-10.68-14.239c-3.564-6.522-7.701-6.522-11.86-6.522
		c-4.154,0-11.87-11.27-16.608-11.86c-4.748-0.59-6.528,1.78-5.933,6.522c0.59,4.748-1.19,8.302-4.147,8.897
		c-2.97,0.595,0,2.963,0.59,4.742c0.594,1.78-3.559,5.933-2.964,8.902c0.59,2.958-0.595,5.338-5.343,5.927
		c-4.743,0.6-3.554,3.553,2.968,4.743c6.522,1.19,6.522-4.142,6.522,1.19c0,5.337-2.963,10.081-1.183,13.049
		c1.778,2.97-0.59,7.712-2.375,10.081c-1.774,2.369-4.743,2.369-4.148,5.338c0.59,2.964-2.969,12.459-5.339,14.824
		c-2.373,2.379-8.306,5.937-10.674,10.68c-2.375,4.747-11.865,8.306-18.982,10.081c-7.117,1.78-16.014,5.337-20.166-0.59
		c-4.155-5.932-14.829-13.049-18.388-20.761c-3.557-7.712-8.301-35.585-10.669-45.665c-2.375-10.087-1.785-26.099-2.97-36.179
		c-1.189-10.081-1.778-17.198-4.748-32.031c-2.959-14.829-4.148-39.739-1.774-48.039c2.369-8.302,2.369-22.541-5.342-27.878
		c-7.707-5.333-18.977-13.05-26.094-16.603c-7.117-3.559-9.492,0-11.865,0.59c-2.369,0.6-7.111,0.6-13.639,11.27
		c-6.527,10.681-7.712,15.419-18.388,9.491c-10.675-5.932-13.049-9.491-18.387-14.239c-5.337-4.742-8.301-4.143-11.859-11.859
		c-3.56-7.712-16.014-15.424-21.946-17.204c-5.927-1.778,0,3.565-2.97,8.902c-2.957,5.337-3.552,14.829-2.957,22.541
		c0.589,7.701-4.154,25.499-5.933,30.841c-1.785,5.337-4.154,8.302-4.749,10.081c-0.59,1.778-4.742,1.179-11.264-0.601
		c-6.528-1.774-13.05-4.143-14.234,0.601c-1.189,4.747-1.189,9.484,2.964,9.484c4.147,0,17.197,2.964,20.76,8.902
		c3.553,5.933,11.265,21.94,8.301,45.67c-2.968,23.72-19.571,104.974-24.319,117.435c-4.742,12.449-17.792,27.278-22.535,26.093
		c-4.748-1.184-12.454-2.373-15.424,1.78c-2.962,4.148-14.823,16.008-23.129,18.387c-8.307,2.369-14.829-1.189-19.576-7.122
		c-4.738-5.928-9.486-9.486-14.824-4.149c-5.337,5.337-9.492,7.112-16.013,9.492c-6.522,2.367-8.302,8.3-11.27,17.791
		c-2.964,9.486-8.301,11.86-8.301,16.008c0,4.158-2.375,4.748-6.527,10.08c-4.149,5.348-8.302,5.348-9.492,11.271
		c-1.183,5.938-2.963,6.527-7.707,7.122c-4.748,0.59-11.27,8.306-16.607,12.455c-5.337,4.153-4.148,14.834-2.964,19.571
		c1.19,4.743,5.927,2.964,11.271,1.185c5.332-1.774,15.417-1.774,15.417,4.748c0,6.522,1.78,8.302,3.559,10.67
		c1.78,2.379,7.117,12.46,4.748,33.811c-1.651,14.861-3.495,28.515-2.268,37.852C37.704,651.946,39.929,651.069,41.846,651.458z
		 M629.771,469.849c5.779,0,0,0,7.695-2.894c7.712-2.89,1.934-10.591-1.916-15.407c-3.856-4.813-4.823-18.298-4.823-24.081
		c0-5.768,4.823-13.475,9.63-13.475l8.673,4.818c0,0,5.779-3.856,11.557-0.967c5.784,2.89-4.822,12.518-6.734,18.297
		c-1.934,5.778-4.823,11.563-0.978,18.297c3.867,6.75,4.822,18.302,2.889,25.047c-1.912,6.741-6.735,4.812-11.553,3.845
		c-4.81-0.96-7.701,1.929-12.517,3.862c-4.812,1.923-7.701-6.751-9.635-9.64C620.136,474.662,623.992,469.849,629.771,469.849z
		 M212.757,293.605c2.741,0.918,0.962,8.672,6.741,8.672c5.778,0,22.153-1.933,17.335,0.957c-4.818,2.889-8.668,1.928-12.524,5.784
		c-3.851,3.845-1.922,17.33-8.662,14.441c-6.746-2.889-6.746-9.63-8.668-13.475C205.051,306.123,209.863,292.639,212.757,293.605z"></path>
</g>
</svg>
